<?xml version="1.0" encoding="UTF-8"?>
<svg width="117px" height="117px" viewBox="0 0 117 117" version="1.1" xmlns="http://www.w3.org/2000/svg" xmlns:xlink="http://www.w3.org/1999/xlink">
    <title>VBTC</title>
    <desc>Created with Sketch.</desc>
    <defs>
        <linearGradient x1="0%" y1="50%" x2="100%" y2="50%" id="linearGradient-1">
            <stop stop-color="#00003F" offset="0%"></stop>
            <stop stop-color="#000066" offset="54.6663851%"></stop>
            <stop stop-color="#000021" offset="100%"></stop>
        </linearGradient>
    </defs>
    <g id="Desktop" stroke="none" stroke-width="1" fill="none" fill-rule="evenodd">
        <g transform="translate(-843.000000, -107.000000)" id="VBTC">
            <g transform="translate(843.000000, 107.000000)">
                <g id="Bitcoin">
                    <g>
                        <path d="M115.248976,72.6518673 C107.434738,103.991096 75.6896221,123.063731 44.3430804,115.248576 C13.0093369,107.435249 -6.0655228,75.6920083 1.75237235,44.3546076 C9.56295423,13.0117225 41.3080697,-6.06274013 72.6454698,1.75058683 C103.990183,9.56391378 123.063215,41.3108104 115.248976,72.6518673 Z" id="Path" fill="url(#linearGradient-1)" fill-rule="nonzero"></path>
                        <path d="M84.6782248,50.3429724 C85.8467721,42.5363413 79.8994716,38.3396813 71.7673361,35.5400745 L74.4052812,24.9650046 L67.9645125,23.3607767 L65.3962766,33.6571694 C63.7030754,33.2354866 61.9640128,32.8376381 60.2359569,32.4434564 L62.8225373,22.0792278 L56.3854375,20.475 L53.7456579,31.0464032 C52.3441349,30.727391 50.9682943,30.4120456 49.6328116,30.0801996 L49.6401494,30.0471984 L40.7577221,27.8306138 L39.0443419,34.705876 C39.0443419,34.705876 43.8230951,35.8004178 43.7222001,35.8682537 C46.330794,36.5191119 46.8022487,38.2443443 46.7233672,39.6120631 L43.7185312,51.6593559 C43.8983077,51.705191 44.1312834,51.7711935 44.388107,51.8738641 C44.1734759,51.8206954 43.9441691,51.7620265 43.7075245,51.705191 L39.4956176,68.5816679 C39.1764226,69.3736981 38.3674283,70.5617435 36.5439808,70.1107263 C36.6081867,70.2042298 31.8624537,68.9428484 31.8624537,68.9428484 L28.665,76.3112961 L37.0466213,78.3995424 C38.6059073,78.7900573 40.1340077,79.1989062 41.6382602,79.5839209 L38.9727982,90.2799954 L45.4062291,91.8842233 L48.0460087,81.3018197 C49.8034158,81.7785046 51.5094582,82.2185213 53.1788116,82.6328705 L50.5482042,93.1657722 L56.988973,94.77 L59.6544349,84.0940929 C70.6373123,86.1713387 78.8960251,85.3334735 82.3723158,75.4055948 C85.1735274,67.4119567 82.2328973,62.8009475 76.4543666,59.7941662 C80.6626045,58.8242958 83.8325414,56.0576903 84.6782248,50.3429724 L84.6782248,50.3429724 Z M69.9622331,70.9669256 C67.9718503,78.9605638 54.505122,74.6392323 50.1391209,73.555691 L53.6759487,59.3853172 C58.0419497,60.4743588 72.0425042,62.630441 69.9622331,70.9669256 Z M71.9544504,50.227468 C70.1383407,57.4987453 58.9298255,53.8044377 55.2939373,52.8987365 L58.5005632,40.0465797 C62.1364515,40.9522809 73.8457727,42.6426787 71.9544504,50.227468 L71.9544504,50.227468 Z" id="Shape" fill="#91FFFF" fill-rule="nonzero"></path>
                    </g>
                </g>
            </g>
        </g>
    </g>
</svg>